<svg width="113" height="97" viewBox="0 0 113 97" fill="none" xmlns="http://www.w3.org/2000/svg">
<path d="M39.9702 72.4926H96.9143C98.8203 72.4926 100.457 70.9073 100.457 68.8352C100.457 66.7007 98.8203 65.126 96.9143 65.126H40.7696C38.0358 65.126 36.2586 63.184 35.8426 60.2316L27.8847 5.93659C27.3355 2.12399 26.009 0.258789 21.0145 0.258789H3.86419C1.93669 0.258789 0.269043 1.89579 0.269043 3.91619C0.269043 5.87429 1.93669 7.57359 3.86419 7.57359H20.3427L28.1655 61.2275C29.2025 68.1257 32.8851 72.4926 39.9702 72.4926ZM30.9602 55.1106H97.0443C104.152 55.1106 107.772 50.7332 108.84 43.7399L112.736 17.8765C112.85 17.2956 112.923 16.4857 112.923 16.0812C112.923 13.7061 111.181 12.0987 108.443 12.0987H26.7174L26.7702 19.4653H104.614L101.194 42.839C100.726 45.8432 99.1373 47.7958 96.3203 47.7958H30.8451L30.9602 55.1106ZM43.7723 96.2076C48.2045 96.2076 51.682 92.7301 51.682 88.2979C51.682 83.9069 48.2045 80.3776 43.7723 80.3776C39.3813 80.3776 35.852 83.9069 35.852 88.2979C35.852 92.7301 39.3813 96.2076 43.7723 96.2076ZM89.4748 96.2076C93.8653 96.2076 97.3953 92.7301 97.3953 88.2979C97.3953 83.9069 93.8653 80.3776 89.4748 80.3776C85.0426 80.3776 81.5028 83.9069 81.5028 88.2979C81.5028 92.7301 85.0426 96.2076 89.4748 96.2076Z" fill="#000000"/>
</svg>
