<svg width="92" height="92" viewBox="0 0 92 92" fill="none" xmlns="http://www.w3.org/2000/svg">
<path d="M16.01 91.3866H75.1007C85.6677 91.3866 91.11 85.9273 91.11 75.5078V16.1131C91.11 5.69357 85.6677 0.234375 75.1007 0.234375H16.01C5.48635 0.234375 0.000854492 5.67638 0.000854492 16.1131V75.5078C0.000854492 85.9445 5.48635 91.3866 16.01 91.3866ZM40.2274 69.8309C38.3602 69.8309 36.8718 69.0579 35.4885 67.2688L23.5396 52.7123C22.6838 51.6331 22.2369 50.4868 22.2369 49.2686C22.2369 46.7461 24.2052 44.7406 26.7003 44.7406C28.2145 44.7406 29.4019 45.268 30.628 46.8793L40.0451 58.8069L60.2371 26.5419C61.3062 24.8325 62.6838 23.964 64.2093 23.964C66.6261 23.964 68.8755 25.6535 68.8755 28.2355C68.8755 29.3645 68.2756 30.585 67.5957 31.6494L44.7372 67.238C43.647 68.9521 42.0741 69.8309 40.2274 69.8309Z" fill="#000000"/>
</svg>
