<svg width="91" height="91" viewBox="0 0 91 91" fill="none" xmlns="http://www.w3.org/2000/svg">
<path d="M16.2301 90.7699H75.4501C85.6801 90.7699 90.7701 85.6599 90.7701 75.6099V15.9999C90.7701 5.93988 85.6801 0.839844 75.4501 0.839844H16.2301C6.0501 0.839844 0.910156 5.91988 0.910156 15.9999V75.5898C0.910156 85.6798 6.0501 90.7699 16.2301 90.7699ZM16.3501 82.8599C11.4801 82.8599 8.76013 80.3098 8.76013 75.2198V16.3999C8.76013 11.3999 11.4801 8.75989 16.3501 8.75989H75.3501C80.1801 8.75989 82.9401 11.3699 82.9401 16.3999V75.2198C82.9401 80.3098 80.1801 82.8599 75.3501 82.8599H16.3501ZM40.5402 68.9199C41.338 68.9258 42.1229 68.7184 42.8138 68.3193C43.5048 67.9203 44.0765 67.344 44.4701 66.6499L66.7601 31.5399C67.4291 30.6186 67.8367 29.5338 67.9401 28.3999C67.9173 27.9014 67.7951 27.4125 67.5804 26.962C67.3658 26.5115 67.0632 26.1085 66.6904 25.7767C66.3177 25.445 65.8824 25.1912 65.41 25.0303C64.9377 24.8694 64.4378 24.8046 63.9401 24.8398C63.2378 24.8758 62.5575 25.0963 61.9677 25.479C61.3778 25.8617 60.8991 26.3933 60.5801 27.0199L40.2902 59.5299L30.6802 47.0599C30.3122 46.4365 29.7845 45.9225 29.1517 45.5709C28.5189 45.2194 27.8038 45.043 27.0801 45.0599C26.5756 45.0584 26.076 45.1581 25.6108 45.3531C25.1456 45.5482 24.7243 45.8347 24.3718 46.1956C24.0193 46.5564 23.7429 46.9844 23.5588 47.4541C23.3748 47.9238 23.2868 48.4257 23.3002 48.9299C23.3587 50.0191 23.7457 51.065 24.4102 51.9299L36.3201 66.5698C36.7677 67.2861 37.3896 67.8773 38.1276 68.2882C38.8655 68.6991 39.6955 68.9165 40.5402 68.9199Z" fill="#000000"/>
</svg>
