<svg width="82" height="107" viewBox="0 0 82 107" fill="none" xmlns="http://www.w3.org/2000/svg">
<path d="M38.5257 106.133C64.2937 106.133 81.5069 88.7009 81.5069 62.4123C81.5069 18.7533 44.317 0.499023 18.4787 0.499023C13.8636 0.499023 10.9614 2.15812 10.9614 5.27892C10.9614 6.48182 11.5317 7.76712 12.5486 8.97102C18.3334 15.8878 24.1489 24.115 24.2524 33.7059C24.2524 35.9625 24.0318 37.918 22.431 40.576L24.8684 40.1399C22.6561 32.9462 16.7954 27.8508 11.6292 27.8508C9.58766 27.8508 8.21996 29.3431 8.21996 31.5398C8.21996 32.7965 8.59376 35.7871 8.59376 37.9266C8.59376 48.8696 0.182617 55.2608 0.182617 72.8795C0.182617 92.8648 15.4443 106.133 38.5257 106.133ZM39.6346 92.4151C30.5517 92.4151 24.49 86.8825 24.49 78.6718C24.49 70.0873 30.6034 67.0354 31.4134 61.5028C31.4757 61.0255 31.7249 60.9009 32.0882 61.2019C34.3513 63.1841 35.8054 65.6552 36.9997 68.4991C39.6155 64.9804 40.8405 57.5289 40.0084 49.5655C39.9461 49.0881 40.2471 48.8389 40.6727 49.0258C51.4052 54.0609 56.9177 64.6583 56.9177 74.2185C56.9177 83.8929 51.2605 92.4151 39.6346 92.4151Z" fill="#000000"/>
</svg>
