<svg width="103" height="103" viewBox="0 0 103 103" fill="none" xmlns="http://www.w3.org/2000/svg">
<path d="M47.3576 102.763H56.3325C58.8774 102.763 60.736 101.268 61.3179 98.7426L63.8301 88.0187C65.7385 87.365 67.5644 86.6701 69.2245 85.8611L78.6094 91.6545C80.6876 92.9639 83.1069 92.7664 84.8419 91.0314L91.1367 84.7366C92.882 82.9911 93.131 80.4788 91.7185 78.3278L85.977 69.0158C86.7859 67.3451 87.5326 65.5297 88.0828 63.8073L98.921 61.2432C101.394 60.7131 102.837 58.8545 102.837 56.2578V47.4488C102.837 44.9556 101.394 43.097 98.921 42.5669L88.1863 39.9511C87.5326 37.9699 86.7342 36.2063 86.0805 34.6909L91.822 25.2236C93.183 23.0831 93.037 20.7155 91.2402 18.9182L84.8419 12.6235C83.0552 10.992 80.8946 10.691 78.7647 11.8969L69.2245 17.7938C67.6162 16.9848 65.7902 16.2899 63.8301 15.6362L61.3179 4.75702C60.736 2.23212 58.8774 0.736816 56.3325 0.736816H47.3576C44.8127 0.736816 42.9541 2.23212 42.424 4.75702L39.8599 15.5327C37.9822 16.1864 36.0739 16.8813 34.455 17.742L24.9666 11.8969C22.7849 10.691 20.6243 10.9402 18.8376 12.6235L12.4393 18.9182C10.642 20.7155 10.4963 23.0831 11.8575 25.2236L17.5991 34.6909C16.9454 36.2063 16.147 37.9699 15.545 39.9511L4.8211 42.5669C2.2962 43.097 0.852661 44.9556 0.852661 47.4488V56.2578C0.852661 58.8545 2.2962 60.7131 4.8211 61.2432L15.6485 63.8073C16.147 65.5297 16.8936 67.3451 17.7026 69.0158L11.961 78.3278C10.5481 80.4788 10.7973 82.9911 12.5428 84.7366L18.8376 91.0314C20.5726 92.7664 22.9919 92.9639 25.1218 91.6545L34.5067 85.8611C36.1257 86.6701 37.9822 87.365 39.8599 88.0187L42.424 98.7426C42.9541 101.268 44.8127 102.763 47.3576 102.763ZM51.8762 68.9997C42.3531 68.9997 34.6158 61.1588 34.6158 51.6875C34.6158 42.289 42.3637 34.5 51.8762 34.5C61.3475 34.5 69.0848 42.289 69.0848 51.6875C69.0848 61.1588 61.3475 68.9997 51.8762 68.9997Z" fill="#000000"/>
</svg>
