<svg width="106" height="105" viewBox="0 0 106 105" fill="none" xmlns="http://www.w3.org/2000/svg">
<path d="M47.8939 104.901H57.738C61.5251 104.901 64.4082 102.63 65.3006 99.0285L67.3988 89.8879L68.9845 89.3347L76.8686 94.2482C80.0853 96.2304 83.7362 95.7742 86.4027 93.0559L93.267 86.2436C95.944 83.5876 96.452 79.8744 94.418 76.7506L89.4527 68.8253L90.0059 67.3843L99.147 65.286C102.748 64.3937 105.071 61.4588 105.071 57.7235V48.0864C105.071 44.3511 102.799 41.4163 99.147 40.5239L90.1094 38.3221L89.5044 36.8294L94.47 28.9041C96.504 25.7286 95.996 22.1189 93.319 19.3594L86.4545 12.5471C83.8397 9.88055 80.1888 9.42435 76.9721 11.3549L69.0363 16.2165L67.3988 15.6116L65.3006 6.47095C64.4082 2.86985 61.5251 0.598145 57.738 0.598145H47.8939C44.1069 0.598145 41.2755 2.86985 40.3831 6.47095L38.2849 15.6116L36.5851 16.2165L28.6493 11.3549C25.4843 9.42435 21.8229 9.88055 19.1669 12.5471L12.3546 19.3594C9.67751 22.1189 9.16951 25.7286 11.2035 28.9041L16.117 36.8294L15.512 38.3221L6.48541 40.5239C2.88431 41.4163 0.612671 44.3511 0.612671 48.0864V57.7235C0.612671 61.4588 2.93601 64.3937 6.48541 65.286L15.6155 67.3843L16.1687 68.8253L11.2552 76.7506C9.22131 79.8744 9.72921 83.5876 12.4063 86.2436L19.2187 93.0559C21.8746 95.7742 25.5878 96.2304 28.7528 94.2482L36.6886 89.3347L38.2849 89.8879L40.3831 99.0285C41.2755 102.63 44.1069 104.901 47.8939 104.901ZM48.6818 97.3066C47.8477 97.3066 47.4096 96.9413 47.2945 96.1907L44.326 84.1056C41.3489 83.3273 38.599 82.2068 36.4816 80.8381L25.8611 87.4308C25.2456 87.8067 24.6407 87.7232 24.0463 87.1912L18.3123 81.4054C17.7284 80.8627 17.7073 80.2789 18.1349 79.6011L24.6241 69.0219C23.5248 66.9668 22.2385 64.2168 21.4602 61.2397L9.32331 58.3229C8.57261 58.2079 8.20741 57.7697 8.20741 56.9357V48.7708C8.20741 47.8849 8.52091 47.5503 9.32331 47.3317L21.4084 44.4667C22.1867 41.2826 23.68 38.4292 24.5206 36.5811L18.0831 26.0537C17.6038 25.3241 17.6249 24.7402 18.2088 24.1458L23.9945 18.4636C24.5889 17.9315 25.0904 17.7963 25.8611 18.2239L36.3781 24.6614C38.4954 23.4479 41.4524 22.2239 44.3777 21.3939L47.2945 9.30885C47.4096 8.55815 47.8477 8.19285 48.6818 8.19285H57.0019C57.8466 8.19285 58.2741 8.53705 58.3892 9.30885L61.306 21.4974C64.3559 22.2757 67.033 23.4997 69.1916 24.7131L79.812 18.2239C80.531 17.7963 81.0324 17.9315 81.6786 18.4636L87.4644 24.1458C87.9965 24.7402 88.0693 25.3241 87.59 26.0537L81.1008 36.5811C82.0142 38.4292 83.4452 41.2721 84.2235 44.4667L96.35 47.3317C97.163 47.5503 97.425 47.8849 97.425 48.7708V56.9357C97.425 57.7697 97.111 58.2079 96.35 58.3229L84.1718 61.2397C83.4452 64.2273 82.1695 66.9668 80.9973 69.0219L87.5382 79.6011C87.9658 80.2789 87.9447 80.8627 87.3609 81.4054L81.6268 87.1912C80.9807 87.7232 80.3757 87.8067 79.812 87.4308L69.1398 80.8381C67.0847 82.2068 64.3041 83.3273 61.306 84.1056L58.3892 96.1907C58.2741 96.9624 57.8466 97.3066 57.0019 97.3066H48.6818ZM52.8265 71.3895C63.0445 71.3895 71.4662 63.0194 71.4662 52.7392C71.4662 42.5835 63.0445 34.2136 52.8265 34.2136C42.6086 34.2136 34.1763 42.5835 34.1763 52.7392C34.1763 62.9677 42.598 71.3895 52.8265 71.3895ZM52.8265 63.8464C46.7634 63.8464 41.8228 58.854 41.8228 52.7392C41.8228 46.7489 46.774 41.7565 52.8265 41.7565C58.7756 41.7565 63.768 46.7489 63.768 52.7392C63.768 58.8023 58.7756 63.8464 52.8265 63.8464Z" fill="#000000"/>
</svg>
